<svg xmlns="http://www.w3.org/2000/svg" viewBox="0 0 100 100"><title>lyre_instrument_music</title><path fill="#ddd" d="M32.639 15.978c-3.462-6.916-9.412-8.508-14.341-7.93-3.166.37-5.746 2.367-5.746 5.287s2.573 5.286 5.746 5.286c2.224 0 4.17-1.135 5.108-2.864 1.602-2.956 6.29 4.778 2.077 13.582-5.229 10.928-14.407 24.11-12.35 37.201 2.584 16.442 13.844 25.978 36.765 25.978 22.92 0 34.181-9.536 36.765-25.978 2.057-13.092-7.121-26.273-12.35-37.201-4.213-8.804.475-16.538 2.077-13.582.937 1.73 2.884 2.864 5.108 2.864 3.173 0 5.746-2.367 5.746-5.286 0-2.92-2.58-4.916-5.746-5.287-4.93-.578-10.88 1.014-14.34 7.93zm1.263 5.287c.147 11.299-11.41 29.043-8.894 43.096 1.116 6.238 5.43 10.093 10.526 12.363v-55.46zm4.505 56.554a36.068 36.068 0 0 0 5.745 1.328V21.265h-5.745zm8.618 1.65c1.005.077 1.97.112 2.873.112.903 0 1.868-.035 2.873-.111V21.265h-5.746zm8.618-.322a36.068 36.068 0 0 0 5.746-1.328V21.265h-5.746zm8.619-2.423c5.095-2.27 9.41-6.125 10.526-12.363 2.516-14.053-9.041-31.797-8.894-43.096h-1.632z" fill-rule="evenodd"/></svg>