<svg xmlns="http://www.w3.org/2000/svg" viewBox="0 0 100 100" fill="#ddd"><path d="M61.807 93.726H38.36c-1.88 0-3.463-1.583-3.463-3.463l-.198-25.032H9.864c-1.88 0-3.463-1.583-3.463-3.463V38.22c0-1.88 1.583-3.462 3.463-3.462H34.6l.297-25.032c0-1.88 1.583-3.463 3.463-3.463h23.448c1.88 0 3.463 1.583 3.463 3.463 0 1.88-1.484 3.463-3.463 3.463H41.723l-.297 25.031c0 1.88-1.583 3.463-3.463 3.463H13.327v16.622h24.834c1.88 0 3.463 1.583 3.463 3.463l.198 25.032h16.622l.197-25.032c0-1.88 1.583-3.463 3.463-3.463h24.834V41.683H62.104c-1.88 0-3.463-1.484-3.463-3.463l-.197-14.247c0-1.88 1.484-3.463 3.462-3.463 1.88 0 3.463 1.484 3.463 3.463l.1 10.884h24.833c1.88 0 3.463 1.583 3.463 3.462v23.548c0 1.88-1.583 3.463-3.463 3.463H65.468l-.198 25.032c0 1.78-1.484 3.364-3.463 3.364z"/></svg>