<svg xmlns="http://www.w3.org/2000/svg" fill="#ddd" viewBox="0 0 100 100"><path d="M87.116 73.676c-1.177-1.19-3.138-1.983-4.707-2.38-1.961 0-3.923-1.19-5.492-2.776l-9.022-9.122 8.63-8.725c2.353 1.19 4.707.793 6.668-1.19 2.354-2.38 2.354-5.95 0-8.329-2.353-2.38-5.884-2.38-8.237 0l-9.414 9.519L33.376 7.839H11.017v22.607L53.774 62.57l-9.415 9.519c-2.353 2.38-2.353 5.949 0 8.329 2.354 2.38 5.884 2.38 8.238 0 1.961-1.983 2.353-4.363 1.177-6.743l8.63-8.725 8.63 8.725c1.568 1.587 2.745 3.57 2.745 5.95 0 2.38 1.57 4.759 3.923 6.345 2.353 1.587 5.884 1.587 8.237 0 4.315-2.776 4.707-8.725 1.177-12.295z"/></svg>